<svg xmlns="http://www.w3.org/2000/svg" viewBox="0 96 960 960">
    <!--System icons-->

    <!--<symbol id="icon-delete" viewBox="0 96 960 960">
        <path d="M259.087 941.978q-28.448 0-48.409-19.89-19.961-19.891-19.961-48.24V307.913h-45.065v-68.131h198.283v-34.304h271.891v34.304h198.522v68.131h-45.065v565.935q0 27.599-20.336 47.865-20.336 20.265-48.034 20.265H259.087Zm441.826-634.065H259.087v565.935h441.826V307.913ZM363.891 789.761h64.066v-399h-64.066v399Zm168.152 0h64.305v-399h-64.305v399ZM259.087 307.913v565.935-565.935Z"/>
    </symbol>-->

    <symbol id="icon-delete" viewBox="0 0 24 24">
        <path d="M9 4.5H8.5V5V6V6.5H9H15H15.5V6V5V4.5H15H9ZM16.5 6V6.5H17H20C20.2761 6.5 20.5 6.72386 20.5 7C20.5 7.27614 20.2761 7.5 20 7.5H19H18.5V8V19C18.5 20.3807 17.3807 21.5 16 21.5H8C6.61929 21.5 5.5 20.3807 5.5 19V8V7.5H5H4C3.72386 7.5 3.5 7.27614 3.5 7C3.5 6.72386 3.72386 6.5 4 6.5H7H7.5V6V5C7.5 4.17157 8.17157 3.5 9 3.5H15C15.8284 3.5 16.5 4.17157 16.5 5V6ZM7 7.5H6.5V8V19C6.5 19.8284 7.17157 20.5 8 20.5H16C16.8284 20.5 17.5 19.8284 17.5 19V8V7.5H17H7Z"/>
    </symbol>

    <symbol id="icon-profile" viewBox="0 96 960 960">
        <path d="M222.957 798.37q62.76-43.522 124.521-66.783 61.761-23.261 132.626-23.261 70.865 0 133.242 23.445 62.376 23.444 124.697 66.599 43.522-54.24 61.663-108.153Q817.848 636.303 817.848 576q0-143.863-96.98-240.856-96.98-96.992-240.826-96.992t-240.868 96.992Q142.152 432.137 142.152 576q0 60.283 18.528 114.139 18.529 53.856 62.277 108.231Zm256.857-190.696q-58.569 0-98.409-40.045-39.84-40.044-39.84-98.456 0-58.412 40.026-98.39 40.026-39.979 98.595-39.979 58.569 0 98.409 40.165 39.84 40.164 39.84 98.576 0 58.412-40.026 98.27-40.026 39.859-98.595 39.859Zm.514 374.304q-83.524 0-157.573-31.928t-129.46-87.333q-55.41-55.406-87.342-129.234-31.931-73.828-31.931-157.769 0-83.671 31.978-157.366 31.978-73.696 87.315-129.033 55.337-55.337 129.177-87.435 73.839-32.098 157.794-32.098 83.671 0 157.366 32.098 73.696 32.098 129.033 87.435 55.337 55.337 87.435 129.085 32.098 73.747 32.098 157.272 0 83.524-32.098 157.6t-87.435 129.413Q711.348 918.022 637.6 950q-73.747 31.978-157.272 31.978Zm-.328-68.13q54.283 0 105.587-15.522t102.304-54.804q-51.239-35.761-102.804-54.163Q533.522 770.957 480 770.957q-53.522 0-104.967 18.402-51.446 18.402-102.685 54.163 51 39.282 102.185 54.804Q425.717 913.848 480 913.848Zm0-369.044q33.251 0 54.408-21.021 21.157-21.022 21.157-54.424t-21.157-54.544Q513.251 393.674 480 393.674q-33.251 0-54.408 21.141-21.157 21.142-21.157 54.544t21.157 54.424q21.157 21.021 54.408 21.021Zm0-75.565Zm.239 373.283Z"/>
    </symbol>

    <symbol id="icon-logout" viewBox="0 96 960 960">
        <path d="M179.761 941.978q-27.698 0-48.034-20.265-20.336-20.266-20.336-47.865V278.152q0-27.697 20.336-48.033 20.336-20.337 48.034-20.337h292.674v68.37H179.761v595.696h292.674v68.13H179.761Zm486.478-182.369-48.978-48.5 101.043-101.044H371.891v-68.13h344.413L615.261 440.891l48.978-48.5L848.609 577l-182.37 182.609Z"/>
    </symbol>

    <symbol id="icon-menu" viewBox="0 96 960 960">
        <path d="M120 816v-60h720v60H120Zm0-210v-60h720v60H120Zm0-210v-60h720v60H120Z"/>
    </symbol>

    <symbol id="icon-arrow-left" viewBox="0 0 24 24">
        <path d="M16.2431 6.34317L14.8288 4.92896L7.75781 12L14.8289 19.0711L16.2431 17.6569L10.5862 12L16.2431 6.34317Z"/>
    </symbol>

    <symbol id="icon-arrow-right" viewBox="0 0 24 24">
        <path d="M10.5859 6.34314L12.0002 4.92892L19.0712 12L12.0002 19.0711L10.5859 17.6568L16.2428 12L10.5859 6.34314Z"/>
    </symbol>

    <symbol id="icon-plus" viewBox="0 0 24 24">
        <path d="M12 4C11.4477 4 11 4.44772 11 5V11H5C4.44772 11 4 11.4477 4 12C4 12.5523 4.44772 13 5 13H11V19C11 19.5523 11.4477 20 12 20C12.5523 20 13 19.5523 13 19V13H19C19.5523 13 20 12.5523 20 12C20 11.4477 19.5523 11 19 11H13V5C13 4.44772 12.5523 4 12 4Z"/>
    </symbol>

    <symbol id="icon-more" viewBox="0 0 24 24">
        <path d="M8 12C8 13.1046 7.10457 14 6 14C4.89543 14 4 13.1046 4 12C4 10.8954 4.89543 10 6 10C7.10457 10 8 10.8954 8 12Z"/>
        <path d="M14 12C14 13.1046 13.1046 14 12 14C10.8954 14 10 13.1046 10 12C10 10.8954 10.8954 10 12 10C13.1046 10 14 10.8954 14 12Z"/>
        <path d="M18 14C19.1046 14 20 13.1046 20 12C20 10.8954 19.1046 10 18 10C16.8954 10 16 10.8954 16 12C16 13.1046 16.8954 14 18 14Z"/>
    </symbol>

    <symbol id="icon-edit" viewBox="0 0 24 24">
        <path d="M14.06 9.02l.92.92L5.92 19H5v-.92l9.06-9.06M17.66 3c-.25 0-.51.1-.7.29l-1.83 1.83 3.75 3.75 1.83-1.83c.39-.39.39-1.02 0-1.41l-2.34-2.34c-.2-.2-.45-.29-.71-.29zm-3.6 3.19L3 17.25V21h3.75L17.81 9.94l-3.75-3.75z"/>
    </symbol>

    <!--Category icons-->
    <symbol id="icon-taxi" viewBox="0 96 960 960">
        <path d="M200.478 857.978v48.5q0 15.088-10.418 25.294-10.419 10.206-25.56 10.206H150q-15.141 0-25.56-10.418-10.418-10.419-10.418-25.56V580.736l85.239-256.649q3.724-16.092 17.598-25.199 13.875-9.106 31.141-9.106h125.565v-77.63h214.87v77.63H712q17.266 0 31.141 9.106 13.874 9.107 17.598 25.199l85.479 256.649V906q0 15.141-10.586 25.56-10.586 10.418-25.632 10.418h-15.5q-15.141 0-25.56-10.206-10.418-10.206-10.418-25.294v-48.5H200.478ZM205.63 522h548.979l-54.283-163.848H259.674L205.63 522Zm-23.478 60v207.848V582ZM286.96 740.804q22.997 0 38.616-15.75 15.62-15.75 15.62-38.25 0-23.333-15.87-39.666-15.869-16.334-38.13-16.334-23.573 0-39.787 16.265-16.213 16.265-16.213 39.5t16.145 38.735q16.145 15.5 39.619 15.5Zm387.083 0q23.334 0 39.667-15.75 16.333-15.75 16.333-38.25 0-23.333-16.264-39.666-16.265-16.334-39.5-16.334-23.236 0-38.736 16.265-15.5 16.265-15.5 39.5t15.75 38.735q15.75 15.5 38.25 15.5Zm-491.891 49.044h595.696V582H182.152v207.848Z"/>
    </symbol>

    <symbol id="icon-coffee" viewBox="0 96 960 960">
        <path d="M149 944.848v-68.37h644.978v68.37H149Zm156.978-125.739q-65.391 0-111.185-45.174Q149 728.761 149 663.37V207.152h669.326q28.203 0 48.286 20.084 20.084 20.083 20.084 48.286v160q0 28.104-20.084 48.117-20.083 20.013-48.286 20.013h-93.13V663.37q0 65.391-45.913 110.565-45.913 45.174-111.305 45.174h-262Zm0-68.131h261.978q35.362 0 62.116-26.634 26.754-26.635 26.754-60.974V275.522H217.37V663.37q0 34.339 27.134 60.974 27.135 26.634 61.474 26.634Zm419.218-315.456h93.13v-160h-93.13v160ZM436.978 513.37Z"/>
    </symbol>

    <symbol id="icon-market" viewBox="0 96 960 960">
        <path d="M155.935 316v-68.37h650.13V316h-650.13Zm4.869 588.131v-258h-49.826V578l45.01-202h649.024l45.01 202v68.131h-49.957v258h-68.13v-258h-180.87v258H160.804ZM229.065 836h253.87V646.131h-253.87V836Zm-50.478-258h603.826-603.826Zm0 0h603.826l-29.565-133.869H208.152L178.587 578Z"/>
    </symbol>

    <symbol id="icon-restaurant" viewBox="0 96 960 960">
        <path d="M282.37 978.63V611.109q-53.196-10.761-91.848-54.055-38.653-43.293-38.653-103.684v-280h65.501v280h65v-280h65.26v280h65v-280h65.74v280q0 60.391-38.772 103.684-38.772 43.294-91.968 54.028V978.63h-65.26Zm423.13 0v-320h-115V351q0-80.516 49.674-129.073T771 173.37v805.26h-65.5Z"/>
    </symbol>
</svg>
